<svg xmlns="http://www.w3.org/2000/svg" fill="currentColor" viewBox="0 0 24 24"><path d="M9.204 2.399a9.98 9.98 0 0 1 7.796.94 9.98 9.98 0 0 1 4.712 6.282A9.97 9.97 0 0 1 20.66 17a9.97 9.97 0 0 1-5.865 4.601A9.98 9.98 0 0 1 7 20.66a9.97 9.97 0 0 1-4.712-6.28A9.97 9.97 0 0 1 3.339 7a9.97 9.97 0 0 1 5.865-4.601m6.795 2.673a7.96 7.96 0 0 0-5.355-.956A9.96 9.96 0 0 1 9.402 10.5a9.96 9.96 0 0 1-4.907 4.266 7.96 7.96 0 0 0 3.504 4.162 7.96 7.96 0 0 0 5.356.954 9.96 9.96 0 0 1 1.243-6.383 9.96 9.96 0 0 1 4.906-4.267A7.96 7.96 0 0 0 16 5.072m3.962 6.138a7.96 7.96 0 0 0-3.631 3.29 7.96 7.96 0 0 0-1.034 4.789 7.96 7.96 0 0 0 3.632-3.29 7.96 7.96 0 0 0 1.033-4.79M8.703 4.71A7.96 7.96 0 0 0 5.072 8a7.96 7.96 0 0 0-1.033 4.789 7.96 7.96 0 0 0 3.63-3.29 7.96 7.96 0 0 0 1.034-4.79"/></svg>
