<svg xmlns="http://www.w3.org/2000/svg" version="1.1">
<symbol id="lowmess-logo" viewBox="0 0 255 45" preserveAspectRatio="xMidYMid meet">
  <title>lowmess logo</title>
  <desc>Custom grid-based lettering. Copyright Alec Lomas.</desc>
  <path d="M223.3 32.8c0 5.8-4.7 10.5-10.4 10.5h-16.9c-0.7 0-1.4-0.6-1.4-1.4V34c0-0.7 0.7-1.3 1.4-1.3l15.6 0c0.7 0 1.3-0.6 1.3-1.3 v-2.5c0-0.7-0.5-1.3-1.3-1.3l-9.3-0.1c-5.8 0-10.5-4.7-10.5-10.4v-5.1c0-5.8 4.8-10.3 10.5-10.3h17.1c0.7 0 1.2 0.5 1.2 1.2v7.8 c0 0.7-0.5 1.3-1.3 1.3l-15.7 0c-0.7 0-1.3 0.6-1.3 1.3l0 2.5c0 0.7 0.6 1.3 1.3 1.3l9.3 0c5.8 0 10.4 4.7 10.4 10.5L223.3 32.8z M255 27.4c0-5.8-4.7-10.5-10.4-10.5l-9.3 0c-0.7 0-1.3-0.6-1.3-1.3l0-2.5c0-0.7 0.6-1.3 1.3-1.3l15.7 0c0.7 0 1.3-0.6 1.3-1.3V2.7 c0-0.7-0.5-1.2-1.2-1.2H234c-5.8 0-10.5 4.5-10.5 10.3V17c0 5.8 4.7 10.4 10.5 10.4l9.3 0.1c0.7 0 1.3 0.6 1.3 1.3v2.5 c0 0.7-0.5 1.3-1.3 1.3l-15.6 0c-0.7 0-1.4 0.6-1.4 1.3v7.9c0 0.7 0.7 1.4 1.4 1.4h16.9c5.8 0 10.4-4.7 10.4-10.5L255 27.4z M158.3 32.7c0 5.8 4.7 10.4 10.5 10.4l17 0c0.7 0 1.3-0.6 1.3-1.3V34c0-0.7-0.5-1.3-1.3-1.3l-15.8 0c-0.7 0-1.3-0.6-1.3-1.3v-2.5 c0-0.7 0.7-1.3 1.4-1.3l9.2-0.1c5.8 0 10.4-4.7 10.4-10.4l0-5.1c0-5.8-4.7-10.4-10.4-10.4h-10.4c-5.8 0-10.6 4.6-10.6 10.3V32.7z M170.1 17.1c-0.7 0-1.3-0.6-1.3-1.3v-1.2c0-1.4 1.3-2.6 2.7-2.6h5.3c1.4 0 2.5 1.1 2.5 2.6v1.3c0 0.7-0.5 1.3-1.3 1.3L170.1 17.1z M56.1 22.3c0-5.8-4.7-10.4-10.4-10.4c-5.8 0-10.4 4.7-10.4 10.4c0 5.8 4.7 10.4 10.4 10.4C51.4 32.7 56.1 28 56.1 22.3z M45.7 43.2 c-11.5 0-20.9-9.3-20.9-20.9S34.2 1.4 45.7 1.4s20.9 9.3 20.9 20.9S57.3 43.2 45.7 43.2z M24.9 43.4c0.7 0 1.3-0.6 1.3-1.3v-7.9 c0-0.7-0.5-1.3-1.3-1.3l-11.8 0c-1.4 0-2.6-1.2-2.6-2.6l0-27.4c0-0.7-0.6-1.2-1.3-1.2H1.4C0.7 1.7 0 2.1 0 2.8v30 c0 5.8 4.7 10.5 10.5 10.5L24.9 43.4z M79.5 2.8c0-0.7-0.6-1.2-1.3-1.2h-7.9c-0.7 0-1.4 0.5-1.4 1.2v30c0 5.8 4.8 10.6 10.5 10.6H82 c3.1 0 6-1.4 7.9-3.6c1.9 2.2 4.7 3.6 7.9 3.6h2.5c5.8 0 10.4-4.7 10.4-10.5l0-30c0-0.7-0.6-1.3-1.3-1.3h-7.8 c-0.7 0-1.3 0.5-1.3 1.2l-0.1 27.5c0 1.4-1.2 2.6-2.6 2.6s-2.6-1.2-2.6-2.6l0.1-27.5c0-0.7-0.6-1.2-1.3-1.2h-7.9 c-0.7 0-1.3 0.5-1.3 1.2l0.1 27.5c0 1.4-1.2 2.6-2.6 2.6s-2.6-1.2-2.6-2.6L79.5 2.8z M144.9 42.1c0 0.7 0.6 1.3 1.3 1.3h7.9 c0.7 0 1.2-0.6 1.2-1.3v-30c0-5.8-4.6-10.4-10.3-10.4h-2.7c-3.1 0-6 1.4-7.9 3.6c-1.9-2.2-4.7-3.6-7.9-3.6h-2.5 c-5.8 0-10.4 4.7-10.4 10.4l0 30c0 0.7 0.6 1.3 1.3 1.3h7.8c0.7 0 1.3-0.6 1.3-1.3l0.1-27.6c0-1.4 1.2-2.6 2.6-2.6 c1.4 0 2.6 1.2 2.6 2.6l-0.1 27.6c0 0.7 0.6 1.3 1.3 1.3h7.9c0.7 0 1.3-0.6 1.3-1.3l-0.1-27.6c0-1.4 1.2-2.6 2.6-2.6 s2.6 1.2 2.6 2.6L144.9 42.1z"/>
</symbol>
<symbol id="lowmess-icon" viewBox="0 0 152 152" preserveAspectRatio="xMidYMid meet">
  <title>lowmess icon</title>
  <desc>A lone drip. The name isn't no-mess, after all. Copyright Alec Lomas.</desc>
  <path d="M76 147.1c23.3 0 47-12.2 47-47S76 6 76 6s-47 58.6-47 94.1 S52.8 147.1 76 147.1z"/>
</symbol>
</svg>