<svg xmlns="http://www.w3.org/2000/svg">
  <symbol id="logotype" viewBox="0 0 1089 252" fill="#333333" preserveAspectRatio="xMinYMid">
    <path d="M943.325 102.765c-5.703-6.544-15.783-13.1-30.37-13.1-23.37 0-37.13 16.473-37.13 30.37 0 40.63 58.5 22.13 58.5 47.26 0 11.19-11.868 16.87-21.37 16.87-11.854 0-18.628-6.714-20.852-13.156l-19.764 3.95c1.563 8.437 14.076 27.204 40.615 27.204 26.41 0 41.62-18.094 41.62-34.87 0-42.38-58.5-27.63-58.5-47.26 0-9.16 10.807-12.37 16.88-12.37 6.207 0 11.986 2.768 14.715 6.324l15.655-11.223zM1035.58 102.765c-5.703-6.544-15.783-13.1-30.37-13.1-23.37 0-37.13 16.473-37.13 30.37 0 40.63 58.5 22.13 58.5 47.26 0 11.19-11.868 16.87-21.37 16.87-11.854 0-18.628-6.714-20.852-13.156l-19.764 3.95c1.564 8.437 14.077 27.204 40.616 27.204 26.41 0 41.62-18.094 41.62-34.87 0-42.38-58.5-27.63-58.5-47.26 0-9.16 10.807-12.37 16.88-12.37 6.207 0 11.986 2.768 14.715 6.324l15.655-11.223zM780.165 132.414h60.82s-7.66-24.75-30.41-24.75-30.41 24.75-30.41 24.75m30.41 51.75c17.312 0 26.61-15.5 28.47-19.81l18.367 5.51c-3.885 9.103-18.215 32.3-46.837 32.3-31.54 0-51.75-28.467-51.75-56.25 0-27.878 20.21-56.25 51.75-56.25 30.695 0 51.75 27.66 51.75 56.25l-.16 4.5h-83.85c0 10.848 10.846 33.75 32.26 33.75M406.695 184.164c-18.02 0-32.62-17.13-32.62-38.25 0-21.13 14.6-38.25 32.62-38.25 18.02 0 32.63 17.12 32.63 38.25 0 21.12-14.61 38.25-32.63 38.25m0-94.5c-29.2 0-52.87 25.18-52.87 56.25 0 31.06 23.67 56.25 52.87 56.25 29.2 0 52.88-25.19 52.88-56.25 0-31.07-23.68-56.25-52.88-56.25M599.075 91.914l-29.25 108h-18l-19.44-76.14-21.06 76.14h-18l-29.25-108h20.25l19.52 78.09 20.98-75.84h15.75l19.04 74.58 19.21-76.83h20.25zM311.075 55.816l.14 125.612c0 8.07 10.345 18.288 20.825 18.288l15.035.01v-17.955l-8.25-.006c-3.5 0-7.5-2.935-7.5-6.198V55.816h-20.25zM614.825 91.82v108h20.25v-75.38c0-9.92 8.24-16.87 16.87-16.87s16.88 6.992 16.88 16.87v75.38h20.25v-75.38c0-9.963 8.24-16.87 16.87-16.87s16.88 6.82 16.88 16.87v75.38h20.25v-75.38c0-18.37-14.99-34.87-34.87-34.87-17.948 0-26.88 13-26.88 13s-9.102-13-27.12-13c-11.186 0-19.13 5.7-19.13 5.7v-3.45h-20.25z" />
  </symbol>
  <symbol id="logo" viewBox="0 0 270 252" fill="#f2930d" preserveAspectRatio="xMinYMid">
    <path d="M231.115 127.914v81h-94.5c-22.37 0-40.5-18.13-40.5-40.5v-94.5h-27v135h-27v-162h81v114.75c0 13.5 6.833 20.25 20.25 20.25h60.75v-27h-54v-108h27v81h54z" />
  </symbol>
</svg>
