<?xml version="1.0" standalone="no"?>
<!DOCTYPE svg PUBLIC "-//W3C//DTD SVG 20010904//EN"
 "http://www.w3.org/TR/2001/REC-SVG-20010904/DTD/svg10.dtd">
<svg version="1.0" xmlns="http://www.w3.org/2000/svg"
 width="506.000000pt" height="506.000000pt" viewBox="0 0 506.000000 506.000000"
 preserveAspectRatio="xMidYMid meet">
<metadata>
Created by potrace 1.11, written by Peter Selinger 2001-2013
</metadata>
<g transform="translate(0.000000,506.000000) scale(0.100000,-0.100000)"
fill="#000000" stroke="none">
<path d="M644 4148 c-2 -3 -4 -17 -4 -30 -1 -40 -1 -142 -1 -158 1 -8 1 -31 0
-50 0 -19 0 -42 0 -50 0 -8 0 -40 0 -70 0 -30 0 -62 0 -70 1 -8 1 -31 0 -50 0
-19 0 -42 0 -50 0 -8 0 -40 0 -70 0 -30 0 -62 0 -70 1 -8 1 -31 0 -50 0 -19 0
-42 0 -50 0 -8 0 -40 0 -70 0 -30 0 -59 0 -65 0 -10 1 -122 1 -234 0 -35 3
-67 5 -72 3 -4 2 -10 -2 -12 -5 -3 -6 -39 -3 -81 3 -41 3 -85 0 -97 -3 -12 -3
-49 0 -81 3 -32 4 -61 2 -63 -2 -2 -3 -64 -2 -137 1 -73 1 -140 1 -148 -2 -47
0 -103 4 -110 3 -5 2 -11 -3 -14 -4 -3 -5 -29 -2 -60 3 -30 3 -62 0 -72 -4 -9
-3 -37 0 -61 4 -24 3 -46 -2 -49 -4 -3 -6 -9 -3 -13 4 -8 6 -68 5 -176 -1 -33
0 -64 1 -70 1 -5 1 -13 0 -17 -3 -25 -3 -219 0 -223 3 -2 2 -31 -1 -65 -3 -33
-3 -60 0 -60 3 0 4 -39 2 -87 -1 -49 -2 -113 -1 -143 0 -30 0 -62 0 -70 -3
-48 0 -104 5 -109 3 -3 123 -6 267 -6 l262 0 5 1350 5 1350 258 0 c142 0 263
-2 268 -5 8 -6 10 -37 9 -182 0 -38 0 -110 -1 -160 0 -51 0 -102 1 -113 1 -11
1 -24 1 -30 -1 -122 0 -266 2 -285 2 -14 0 -36 -3 -50 -4 -14 -4 -36 0 -50 4
-14 3 -35 -1 -47 -5 -12 -4 -25 1 -28 5 -3 5 -18 1 -33 -4 -15 -4 -39 0 -54 4
-15 5 -29 2 -32 -3 -2 -4 -35 -4 -73 0 -37 1 -111 0 -163 0 -52 0 -104 1 -115
1 -11 1 -24 1 -30 0 -37 0 -263 0 -275 1 -8 0 -44 0 -80 -2 -98 6 -212 19
-261 7 -24 14 -51 15 -60 11 -57 84 -194 144 -269 53 -67 142 -150 161 -150 5
0 10 -4 10 -9 0 -13 176 -98 240 -115 30 -9 87 -19 125 -23 39 -5 500 -8 1025
-8 l955 0 3 810 2 810 -537 0 -538 0 -5 810 -5 810 -255 1 c-140 0 -260 -2
-267 -4 -7 -2 -12 -24 -13 -50 0 -26 -2 -58 -3 -72 -2 -14 0 -39 4 -56 3 -18
3 -38 -1 -44 -4 -7 -4 -25 0 -41 5 -15 5 -44 0 -63 -4 -20 -4 -38 1 -41 4 -3
6 -11 4 -18 -9 -23 -11 -82 -4 -113 3 -18 3 -38 -1 -44 -4 -7 -4 -25 0 -41 5
-15 5 -44 0 -63 -4 -20 -4 -38 1 -41 4 -3 6 -11 4 -18 -9 -23 -11 -82 -4 -113
3 -18 3 -38 -1 -44 -4 -7 -4 -25 0 -41 5 -15 5 -44 0 -63 -4 -20 -4 -38 0 -41
4 -3 5 -20 1 -37 -7 -32 -5 -92 3 -114 2 -6 1 -17 -4 -24 -4 -7 -4 -25 0 -41
5 -15 5 -44 0 -63 -4 -20 -4 -38 0 -41 4 -3 5 -20 1 -37 -4 -18 -6 -42 -5 -53
2 -23 4 -71 4 -100 -1 -85 -1 -114 -1 -140 0 -16 0 -68 0 -115 -1 -47 0 -98 1
-115 1 -16 2 -36 1 -42 -1 -34 0 -181 2 -203 l2 -25 535 0 535 0 3 -270 2
-270 -652 1 c-596 0 -658 2 -713 18 -33 10 -73 25 -89 34 -48 28 -105 89 -122
132 -3 8 -10 24 -15 35 -26 59 -28 161 -29 1289 0 649 -2 1182 -6 1185 -8 8
-1605 8 -1610 -1z"/>
</g>
</svg>
